<svg width="200" height="178" viewBox="0 0 200 178" fill="none" xmlns="http://www.w3.org/2000/svg">
<path d="M161.376 139.003L162.953 124.864C162.953 118.173 157.038 113.909 150.831 111.403C140.577 107.265 117.199 97.9414 117.199 97.9414C117.199 97.9414 114.833 112.632 101.471 112.632C89.3407 112.632 86.0911 97.9414 86.0911 97.9414C86.0911 97.9414 61.2222 106.367 52.4672 111.403C46.6621 114.737 39.6897 119.245 39.6897 122.389L41.8351 139.003H161.376Z" fill="#91B7E2"/>
<path d="M117.183 97.973C117.183 97.973 115.448 112.9 101.408 112.9C88.4337 112.9 86.1069 97.973 86.1069 97.973V82.7542H117.215L117.183 97.973Z" fill="#E78B7D"/>
<path d="M130.387 66.3687C130.387 76.6696 116.639 90.8008 101.353 90.8008C86.6511 90.8008 72.3513 78.6084 72.3513 66.3687L71.1919 43.7492C71.1909 39.7915 71.9703 35.8724 73.4858 32.2158C75.0013 28.5593 77.2231 25.237 80.0241 22.4388C82.8251 19.6406 86.1506 17.4214 89.8103 15.9081C93.4701 14.3947 97.3924 13.6168 101.353 13.6189C105.314 13.6168 109.236 14.3947 112.896 15.9081C116.556 17.4214 119.881 19.6406 122.682 22.4388C125.483 25.237 127.705 28.5593 129.221 32.2158C130.736 35.8724 131.516 39.7915 131.514 43.7492L130.387 66.3687Z" fill="#F39886"/>
<path d="M140.135 55.1536C139.993 59.1494 137.477 62.3099 134.52 62.2468C131.562 62.1838 129.251 58.8184 129.385 54.8147C129.519 50.811 132.035 47.6663 135.001 47.7688C137.966 47.8712 140.27 51.1578 140.135 55.1536Z" fill="#F39886"/>
<path d="M73.8261 54.468C73.9523 58.4717 71.6492 61.7897 68.6836 61.8843C65.7179 61.9789 63.2097 58.8106 63.0757 54.7911C62.9416 50.7716 65.2368 47.4772 68.2103 47.3827C71.1839 47.2881 73.6921 50.4722 73.8261 54.468Z" fill="#F39886"/>
<path d="M135.356 55.4688C135.356 55.4688 137.13 43.0715 137.13 33.8898C137.13 18.6 130.568 0 101.637 0C79.931 0 66.1439 17.402 66.1439 36.7743C66.1439 42.6696 65.8442 46.2792 67.2166 54.8068H69.4408C76.6657 50.9213 70.2296 37.0108 74.5282 32.6287C74.5282 32.6287 79.8758 38.0826 95.6269 37.7516C114.257 37.3575 115.74 27.8369 122.144 27.7423C125.662 27.6871 127.168 29.1767 128.06 33.7085C129.574 41.3928 125.828 47.7451 133.092 55.3822L135.356 55.4688Z" fill="#181F38"/>
<path d="M176.338 139.003C168.979 120.143 156.549 114.445 156.549 114.445C156.549 114.445 156.604 123.627 156.62 139.003H176.338Z" fill="#91B7E2"/>
<path d="M23 139.003H47.6796C47.6796 123.469 47.7585 114.185 47.7585 114.185C47.7585 114.185 31.7077 120.734 23 139.003Z" fill="#91B7E2"/>
<path d="M102.568 69.0405H102.063C101.993 69.0346 101.926 69.015 101.864 68.9828C101.802 68.9506 101.747 68.9065 101.702 68.853C101.658 68.7995 101.624 68.7377 101.603 68.6712C101.583 68.6046 101.575 68.5346 101.582 68.4652C101.584 68.3935 101.602 68.3232 101.634 68.2588C101.665 68.1943 101.71 68.1372 101.765 68.0912C101.82 68.0451 101.884 68.0111 101.953 67.9914C102.022 67.9716 102.094 67.9666 102.165 67.9766C103.23 68.0869 104.043 67.7716 104.129 67.5352C104.169 67.4406 104.066 67.0702 103.183 66.4712C100.525 64.6664 100.217 58.3771 100.201 58.117C100.197 57.9754 100.248 57.8376 100.344 57.7331C100.44 57.6286 100.573 57.5656 100.714 57.5574C100.783 57.5543 100.852 57.5649 100.917 57.5886C100.982 57.6123 101.041 57.6487 101.092 57.6957C101.143 57.7426 101.183 57.7992 101.212 57.8621C101.241 57.9249 101.256 57.9928 101.258 58.0618C101.337 59.7327 101.929 64.3669 103.774 65.5964C104.95 66.3845 105.352 67.1727 105.131 67.8899C104.91 68.6071 103.703 69.0405 102.568 69.0405Z" fill="#181F38"/>
<path d="M84.9158 53.932C84.5322 53.929 84.1524 54.0076 83.8016 54.1625C83.4508 54.3174 83.1369 54.5451 82.8808 54.8304C82.4604 55.3582 82.2373 56.016 82.2498 56.6904C82.2327 57.0503 82.2891 57.41 82.4155 57.7475C82.5418 58.0849 82.7356 58.3932 82.985 58.6534C83.2344 58.9137 83.5342 59.1205 83.8661 59.2613C84.198 59.4022 84.5552 59.474 84.9158 59.4725C85.3021 59.4814 85.6856 59.4048 86.0388 59.2481C86.392 59.0914 86.7061 58.8585 86.9586 58.5662C87.4041 58.0439 87.6426 57.3766 87.629 56.6904C87.6442 56.3281 87.5848 55.9666 87.4545 55.6281C87.3242 55.2897 87.1257 54.9816 86.8713 54.723C86.6169 54.4644 86.3121 54.2608 85.9757 54.1247C85.6393 53.9886 85.2785 53.923 84.9158 53.932Z" fill="#181F38"/>
<path d="M118.256 53.9319C118.638 53.9281 119.017 54.0063 119.367 54.1613C119.717 54.3163 120.029 54.5444 120.283 54.8304C120.705 55.3574 120.931 56.0151 120.922 56.6904C120.944 57.2485 120.793 57.7999 120.488 58.2683C120.183 58.7366 119.741 59.0988 119.221 59.3048C118.701 59.5108 118.131 59.5503 117.587 59.418C117.044 59.2857 116.556 58.988 116.189 58.5661C115.749 58.0413 115.514 57.375 115.527 56.6904C115.511 56.3267 115.571 55.9638 115.703 55.6243C115.834 55.2848 116.034 54.9759 116.29 54.7171C116.546 54.4582 116.853 54.2549 117.191 54.1198C117.529 53.9847 117.892 53.9208 118.256 53.9319Z" fill="#181F38"/>
<path d="M124.652 46.9726C124.652 46.9726 121.671 43.2684 115.006 45.5146" stroke="#181F38" stroke-width="1.9" stroke-linecap="round" stroke-linejoin="round"/>
<path d="M79.2842 46.9726C79.2842 46.9726 82.2656 43.2684 88.9304 45.5146" stroke="#181F38" stroke-width="1.9" stroke-linecap="round" stroke-linejoin="round"/>
<path d="M91.7384 68.5913C91.7384 70.9557 88.8121 72.8708 85.184 72.8708C81.5558 72.8708 78.6375 70.9635 78.6375 68.5913C78.6375 66.219 81.5637 64.3196 85.184 64.3196C88.8043 64.3196 91.7384 66.2347 91.7384 68.5913Z" fill="#EE7484"/>
<path d="M124.534 69.4976C124.534 71.862 121.6 73.7692 117.98 73.7692C114.359 73.7692 111.433 71.8541 111.433 69.4976C111.433 67.141 114.399 65.2495 117.98 65.2495C121.561 65.2495 124.534 67.1253 124.534 69.4976Z" fill="#EE7484"/>
<path d="M93.2371 76.8508C93.3869 81.4929 97.5672 85.2287 102.702 85.2287C107.837 85.2287 112.033 81.4929 112.167 76.8508H93.2371Z" fill="white"/>
<path d="M151.462 15.5579H53.1455V113.799H151.462V15.5579Z" stroke="white" stroke-width="1.78" stroke-miterlimit="10"/>
<path d="M137.548 29.4604H67.051V99.896H137.548V29.4604Z" stroke="white" stroke-width="1.78" stroke-miterlimit="10"/>
<path d="M81.7214 43.0714C81.7214 43.5391 81.5827 43.9962 81.3227 44.385C81.0627 44.7739 80.6931 45.0769 80.2607 45.2559C79.8284 45.4348 79.3526 45.4816 78.8936 45.3904C78.4346 45.2992 78.013 45.074 77.682 44.7433C77.3511 44.4127 77.1258 43.9913 77.0345 43.5327C76.9432 43.0741 76.99 42.5986 77.1691 42.1666C77.3482 41.7346 77.6515 41.3653 78.0406 41.1055C78.4297 40.8457 78.8872 40.707 79.3552 40.707C79.9828 40.707 80.5846 40.9561 81.0284 41.3995C81.4721 41.843 81.7214 42.4444 81.7214 43.0714Z" fill="white"/>
<path d="M105.218 58.3297C105.21 58.7939 105.066 59.2455 104.803 59.6282C104.54 60.0109 104.17 60.3078 103.739 60.4819C103.308 60.6559 102.836 60.6994 102.381 60.607C101.925 60.5145 101.507 60.2901 101.179 59.9618C100.85 59.6335 100.626 59.2159 100.533 58.761C100.441 58.306 100.484 57.8339 100.658 57.4035C100.833 56.9731 101.13 56.6035 101.513 56.3407C101.896 56.078 102.348 55.9337 102.812 55.9259C103.13 55.9205 103.445 55.9791 103.739 56.098C104.033 56.2169 104.301 56.3938 104.525 56.618C104.75 56.8423 104.927 57.1095 105.046 57.4035C105.165 57.6976 105.223 58.0125 105.218 58.3297Z" fill="white"/>
<path d="M122.286 45.4753C122.286 45.9413 122.148 46.3968 121.89 46.7847C121.632 47.1726 121.264 47.4757 120.834 47.6557C120.404 47.8358 119.93 47.8848 119.473 47.7968C119.015 47.7087 118.593 47.4874 118.261 47.1606C117.928 46.8339 117.7 46.4163 117.604 45.9603C117.508 45.5042 117.55 45.0301 117.723 44.5975C117.896 44.1648 118.193 43.7929 118.577 43.5284C118.961 43.2639 119.414 43.1187 119.88 43.1109C120.195 43.1057 120.506 43.163 120.798 43.2795C121.09 43.3959 121.355 43.5693 121.579 43.7893C121.803 44.0094 121.981 44.2718 122.102 44.5613C122.224 44.8508 122.286 45.1615 122.286 45.4753Z" fill="white"/>
<path d="M88.9936 79.7986C88.9936 80.2645 88.8558 80.72 88.5975 81.108C88.3392 81.4959 87.9719 81.7989 87.5418 81.979C87.1117 82.159 86.638 82.2081 86.1801 82.12C85.7222 82.0319 85.3006 81.8106 84.9682 81.4839C84.6357 81.1571 84.4073 80.7395 84.3116 80.2835C84.2159 79.8275 84.2572 79.3534 84.4302 78.9207C84.6033 78.4881 84.9004 78.1161 85.2843 77.8516C85.6682 77.5872 86.1218 77.4419 86.588 77.4342C86.902 77.4289 87.214 77.4862 87.5056 77.6027C87.7973 77.7192 88.0628 77.8925 88.2867 78.1126C88.5106 78.3327 88.6885 78.5951 88.8098 78.8845C88.9312 79.174 88.9937 79.4847 88.9936 79.7986Z" fill="white"/>
<path d="M120.63 83.5817C120.63 84.0493 120.491 84.5065 120.231 84.8953C119.971 85.2841 119.602 85.5872 119.169 85.7661C118.737 85.9451 118.261 85.9919 117.802 85.9007C117.343 85.8094 116.921 85.5842 116.591 85.2536C116.26 84.9229 116.034 84.5016 115.943 84.043C115.852 83.5843 115.898 83.1089 116.078 82.6769C116.257 82.2448 116.56 81.8756 116.949 81.6158C117.338 81.356 117.796 81.2173 118.264 81.2173C118.891 81.2173 119.493 81.4664 119.937 81.9098C120.381 82.3532 120.63 82.9546 120.63 83.5817Z" fill="white"/>
<path d="M86.5959 79.7986L102.812 58.3219L79.3237 43.0715" stroke="white" stroke-width="0.94" stroke-miterlimit="10"/>
<path d="M103.917 59.8037L118.847 83.5817" stroke="white" stroke-width="0.94" stroke-miterlimit="10"/>
<path d="M118.847 82.368L120.63 45.4675" stroke="white" stroke-width="0.94" stroke-miterlimit="10"/>
<path d="M85.8465 79.7986L78.5823 43.0715L119.857 44.9158L104.256 57.7072" stroke="white" stroke-width="0.94" stroke-miterlimit="10"/>
<path d="M87.3452 81.1777L117.199 83.5815" stroke="white" stroke-width="0.94" stroke-miterlimit="10"/>
</svg>
