<svg width="34" height="23" viewBox="0 0 34 23" fill="none" xmlns="http://www.w3.org/2000/svg">
<path opacity="0.7" d="M27.6665 0C26.5073 1.08979 25.1284 1.92872 23.6187 2.46264C22.0268 2.73859 17.6214 0.731685 15.4507 2.7804C15.0889 3.13579 14.642 3.49118 14.1738 3.84657C13.1522 3.40756 11.5774 2.73859 10.4281 2.09053C9.27892 1.44246 6.38458 0 6.38458 0L0 7.31685C0 7.31685 1.57486 9.40738 2.55383 10.7871C3.19229 11.707 3.97972 13.1076 4.49049 14.0484L3.7669 14.8846C3.59362 15.2227 3.53127 15.6053 3.58844 15.9796C3.64561 16.354 3.81948 16.7018 4.08613 16.9751C4.39391 17.2018 4.76839 17.3239 5.15307 17.3232C5.53774 17.3224 5.91172 17.1988 6.21858 16.9709C6.1048 17.1018 6.01869 17.2536 5.96527 17.4175C5.91185 17.5814 5.89219 17.7541 5.90745 17.9255C5.9227 18.097 5.97256 18.2637 6.05411 18.416C6.13567 18.5683 6.24728 18.7032 6.38245 18.8127C6.70743 18.9991 7.07716 19.097 7.45351 19.0963C7.82985 19.0955 8.19919 18.9962 8.52341 18.8085C8.28025 19.1062 8.1472 19.4762 8.14604 19.8579C8.14488 20.2396 8.27568 20.6103 8.51703 20.9095C8.83074 21.0162 9.16532 21.0502 9.49463 21.0088C9.82393 20.9675 10.1391 20.8519 10.4154 20.6712C10.2777 20.9912 10.2421 21.3447 10.3131 21.6851C10.3842 22.0255 10.5586 22.3367 10.8133 22.5777C11.1732 22.7348 11.5678 22.7996 11.9602 22.7659C12.3525 22.7323 12.7297 22.6013 13.0565 22.3854L14.1546 21.4091C15.1591 22.3917 16.5446 23 18.0747 23L18.2046 22.9979C18.7088 22.9556 19.1919 22.7794 19.602 22.4881C20.0121 22.1968 20.3339 21.8014 20.5328 21.3443C20.8435 21.4614 21.1968 21.5408 21.5714 21.5408C22.0736 21.5408 22.5397 21.3987 22.9334 21.1541C24.1784 20.345 23.8804 19.7179 23.8804 19.7179C24.3231 19.9051 24.8149 19.9494 25.2849 19.8446C25.7549 19.7398 26.179 19.4912 26.496 19.1346C26.8254 18.8036 27.0332 18.3741 27.0864 17.9141C27.1396 17.4541 27.0352 16.9898 26.7897 16.5946C26.8031 16.6025 26.8187 16.6062 26.8344 16.6051C27.7303 16.6051 28.5093 16.1201 28.9158 15.4051C29.1158 14.897 29.1834 14.3478 29.1124 13.8074C29.0414 13.2671 28.8341 12.7527 28.5093 12.3111L28.5156 12.3216C30.2608 11.9871 30.1969 11.13 31.0482 9.87566C31.8542 8.85206 32.8572 7.99402 34 7.3503L27.6665 0ZM27.5601 14.7591C26.6237 15.679 25.9001 15.2818 24.304 14.0902C22.7078 12.8986 19.5368 10.6617 19.5368 10.6617C19.6666 11.2993 19.9667 11.8533 20.3902 12.2944C21.0691 13.0449 23.0909 14.7591 24.0486 15.6372C24.6445 16.1807 26.1768 17.2678 25.2829 18.104C24.3891 18.9402 23.6868 18.104 22.2183 16.9333C20.7499 15.7626 17.4725 12.8777 17.4725 12.8777C17.4544 13.1542 17.4963 13.4314 17.5953 13.6908C17.6944 13.9503 17.8484 14.1861 18.0471 14.3828C18.4089 14.8009 20.4306 16.7242 21.2819 17.6023C22.1332 18.4803 22.8781 19.0029 22.1545 19.6928C21.4309 20.3827 19.9624 19.2956 19.1537 18.4803C17.8981 17.2887 15.4081 15.0727 15.4081 15.0727L15.406 15.1835C15.406 15.7772 15.6145 16.3208 15.9657 16.7514C16.5786 17.5416 17.7704 18.566 18.494 19.3604C19.2176 20.1548 19.6432 20.8238 18.494 21.4509C17.3448 22.0781 15.6422 20.5311 14.8973 19.7785V19.7743C14.8975 19.5678 14.822 19.3682 14.6845 19.212C14.43 18.9803 14.1159 18.8213 13.7761 18.752C13.4363 18.6828 13.0838 18.7059 12.7564 18.8189C12.8911 18.7005 12.9991 18.5557 13.0734 18.3938C13.1477 18.2319 13.1867 18.0565 13.1879 17.8789C13.1891 17.7013 13.1525 17.5254 13.0804 17.3626C13.0082 17.1997 12.9022 17.0535 12.7692 16.9333C12.4898 16.7254 12.1488 16.613 11.7983 16.6134C11.4479 16.6138 11.1071 16.7269 10.8282 16.9354C10.9693 16.8031 11.0781 16.6412 11.1467 16.4619C11.2154 16.2826 11.242 16.0904 11.2246 15.8996C11.2072 15.7088 11.1463 15.5243 11.0464 15.3598C10.9464 15.1953 10.81 15.055 10.6473 14.9494C10.2664 14.7142 9.81931 14.6037 9.3704 14.6338C8.9215 14.6638 8.49384 14.8329 8.14885 15.1166C8.37942 14.8421 8.4931 14.4907 8.46613 14.1358C8.43916 13.7809 8.27363 13.45 8.00413 13.2121C7.66919 12.9059 7.24235 12.7144 6.78741 12.6661C6.33246 12.6179 5.87385 12.7156 5.4801 12.9446L4.06485 10.5969C3.08588 9.07081 1.93666 7.482 1.93666 7.482L6.78893 1.69124C6.78893 1.69124 8.51277 2.7365 9.93866 3.5309C10.641 3.9281 11.854 4.45074 12.7692 4.86884C11.322 5.93501 10.1089 6.95937 10.4707 7.67015C11.1154 8.12479 11.886 8.37555 12.6795 8.389C13.4731 8.40245 14.2519 8.17794 14.9122 7.74541C15.7589 7.19253 16.7537 6.89928 17.7704 6.90293C18.5089 6.90293 19.2112 7.05344 19.8475 7.3273C21.0265 8.10916 23.1973 10.0324 25.1765 11.245C27.6665 13.0219 28.156 14.1717 27.5601 14.757V14.7591Z" fill="#4D77C1"/>
</svg>
