<svg width="150" height="150" viewBox="0 0 150 150" fill="none" xmlns="http://www.w3.org/2000/svg">
<rect x="16" y="34" width="121" height="75" fill="white"/>
<path fill-rule="evenodd" clip-rule="evenodd" d="M18.8971 75.1798C18.8971 92.2134 29.866 100.828 46.3274 100.828H66.2224C68.9846 100.828 71.2238 98.5888 71.2238 95.8266V95.8266C71.2238 94.3542 70.575 92.9566 69.4503 92.0063L62.6112 86.2277C60.7245 84.6336 57.8357 85.9747 57.8357 88.4447V88.4447C57.8357 90.0476 56.5363 91.347 54.9334 91.347H47.3736C35.4076 91.347 32.6613 84.9226 32.6613 75C32.6613 63.9658 36.8625 58.7674 48.5669 58.7674H49.1717C51.8351 58.7674 53.9941 56.6084 53.9941 53.945V53.945C53.9941 51.2817 51.8351 49.1227 49.1717 49.1227H44.4311C28.7053 49.1227 18.8971 59.503 18.8971 75.1798ZM85.4621 100.828C89.1637 100.828 92.1644 97.8273 92.1644 94.1257V86.1891C92.1644 83.2405 90.8631 80.4422 88.6083 78.5422L74.7309 66.8479C72.4761 64.9479 71.1748 62.1496 71.1748 59.201V55.8087C71.1748 52.1252 68.1887 49.1391 64.5052 49.1391V49.1391C60.8218 49.1391 57.8357 52.1252 57.8357 55.8086V63.9786C57.8357 66.9059 59.1184 69.6863 61.3454 71.5862L75.3049 83.4954C77.4971 85.3657 78.7598 88.1026 78.7598 90.9842V94.1257C78.7598 97.8273 81.7605 100.828 85.4621 100.828V100.828ZM87.5261 63.8352C89.3954 65.3306 92.1644 63.9997 92.1644 61.6059V61.6059C92.1644 60.0293 93.4426 58.7511 95.0192 58.7511H102.79C114.396 58.7511 117.241 65.6986 117.241 75.9154C117.29 88.7969 112.598 91.347 99.9128 91.347V91.347C97.6016 91.347 95.728 93.2206 95.728 95.5318V96.0875C95.728 98.7056 97.8502 100.846 100.468 100.863C107.75 100.909 115.198 100.65 121.556 96.3165C128.847 91.4124 131.103 82.7812 131.103 74.4605C131.103 59.5194 124.09 49.1227 105.553 49.1227H83.9599C81.088 49.1227 78.7598 51.4509 78.7598 54.3228V54.3228C78.7598 55.9025 79.4779 57.3966 80.7114 58.3834L87.5261 63.8352ZM0 10C0 4.47715 4.47715 0 10 0H140C145.523 0 150 4.47715 150 10V140C150 145.523 145.523 150 140 150H10C4.47715 150 0 145.523 0 140V10Z" fill="#003DA6"/>
</svg>
