<svg width="102" height="102" viewBox="0 0 102 102" fill="none" xmlns="http://www.w3.org/2000/svg">
<g clip-path="url(#clip0_330_1323)">
<path fill-rule="evenodd" clip-rule="evenodd" d="M12.8486 51.1223C12.8486 62.7051 20.3066 68.5632 31.4992 68.5632H48.4269V63.5833L39.324 55.891V62.116H32.2105C24.0745 62.116 22.2073 57.7474 22.2073 51C22.2073 43.4967 25.0638 39.9619 33.0219 39.9619H36.712V33.4034H30.2099C19.5175 33.4034 12.8486 40.4621 12.8486 51.1223ZM62.6649 68.5632V55.4464L48.3936 43.4189V33.4146H39.324V46.6425L53.5508 58.7812V68.5632H62.6649ZM62.6649 45.9311V39.9507H69.8895C77.781 39.9507 79.7149 44.675 79.7149 51.6225C79.7483 60.3819 76.5584 62.116 67.9333 62.116H65.0879V68.5632C71.0121 68.5632 77.3809 69.0857 82.6492 65.4952C87.6064 62.1604 89.1402 56.2912 89.1402 50.6332C89.1402 40.4732 84.372 33.4034 71.7679 33.4034H53.5508V38.6391L62.6649 45.9311ZM0 0H101.989V102H0V0Z" fill="#003DA6"/>
</g>
<defs>
<clipPath id="clip0_330_1323">
<rect width="102" height="102" fill="white"/>
</clipPath>
</defs>
</svg>
