<svg width="150" height="150" viewBox="0 0 150 150" fill="none" xmlns="http://www.w3.org/2000/svg">
<g clip-path="url(#clip0_884_1116)">
<path fill-rule="evenodd" clip-rule="evenodd" d="M18.8971 75.1798C18.8971 92.2134 29.866 100.828 46.3274 100.828H71.2238V93.5048L57.8357 82.1927V91.347H47.3736C35.4076 91.347 32.6613 84.9226 32.6613 75C32.6613 63.9658 36.8625 58.7674 48.5669 58.7674H53.9941V49.1227H44.4311C28.7053 49.1227 18.8971 59.503 18.8971 75.1798ZM92.1644 100.828V81.5388L71.1748 63.8513V49.1391H57.8357V68.592L78.7598 86.4429V100.828H92.1644ZM92.1644 67.5458V58.7511H102.79C114.396 58.7511 117.241 65.6986 117.241 75.9154C117.29 88.7969 112.598 91.347 99.9128 91.347H95.728V100.828C104.441 100.828 113.808 101.597 121.556 96.3165C128.847 91.4124 131.103 82.7812 131.103 74.4605C131.103 59.5194 124.09 49.1227 105.553 49.1227H78.7598V56.8221L92.1644 67.5458ZM0 0H150V150H0V0Z" fill="#003DA6"/>
</g>
<defs>
<clipPath id="clip0_884_1116">
<rect width="150" height="150" fill="white"/>
</clipPath>
</defs>
</svg>
