<svg width="250" height="232" viewBox="0 0 250 232" fill="none" xmlns="http://www.w3.org/2000/svg">
<path opacity="0.42" d="M56.6776 226.673H193.182C223.625 205.647 243.546 171.164 243.546 132.055C243.546 68.1347 190.516 7.15839 125 7.15839C59.4834 7.15839 6.45312 68.1347 6.45312 132.055C6.45312 171.164 26.2343 205.787 56.6776 226.673Z" fill="url(#paint0_linear_31_2938)"/>
<path opacity="0.43" d="M125 232C194.036 232 250 229.804 250 227.094C250 224.384 194.036 222.188 125 222.188C55.9644 222.188 0 224.384 0 227.094C0 229.804 55.9644 232 125 232Z" fill="#CEE5ED"/>
<path d="M84.3154 167.799H78.5635V222.187H84.3154V167.799Z" fill="#AAC6CE"/>
<path d="M84.3154 167.799H78.5635V175.369H84.3154V167.799Z" fill="#85B0BA"/>
<path d="M106.061 222.187H58.3615C56.5377 222.187 55.1348 223.729 55.1348 225.411V227.094H109.428V225.411C109.428 223.589 107.884 222.187 106.061 222.187Z" fill="#AAC6CE"/>
<path d="M67.9015 167.939H107.324C93.0138 162.753 98.4851 114.392 101.151 96.0294C101.712 92.3848 98.7657 89.0206 95.1181 89.0206H68.8836C63.5525 89.0206 58.9229 92.9455 58.2214 98.2722C55.9767 114.953 52.3291 149.576 59.484 163.033C61.0272 165.977 64.3942 167.939 67.9015 167.939Z" fill="#AAC6CE"/>
<path d="M52.0617 59.9116C66.9584 56.5889 76.333 41.8304 73.0004 26.9477C69.6678 12.0649 54.8901 2.69364 39.9934 6.01636C25.0967 9.33907 15.7221 24.0975 19.0547 38.9803C22.3873 53.863 37.165 63.2343 52.0617 59.9116Z" fill="#3E8CCC"/>
<path d="M46.0157 55.5191C58.4901 55.5191 68.6027 45.4149 68.6027 32.9508C68.6027 20.4867 58.4901 10.3826 46.0157 10.3826C33.5412 10.3826 23.4287 20.4867 23.4287 32.9508C23.4287 45.4149 33.5412 55.5191 46.0157 55.5191Z" fill="#CEE5ED"/>
<path d="M39.7027 40.6596C39.2818 40.6596 39.0013 40.5194 38.7207 40.2391C38.1595 39.6784 38.1595 38.8373 38.7207 38.2766L44.6129 32.3892V16.9699C44.6129 16.1289 45.1741 15.5682 46.0159 15.5682C46.8576 15.5682 47.4188 16.1289 47.4188 16.9699V32.9499C47.4188 33.3705 47.2785 33.6508 46.9979 33.9312L40.6848 40.2391C40.4042 40.5194 39.9833 40.6596 39.7027 40.6596Z" fill="#3E8CCC"/>
<path d="M48.9622 32.5294C48.9622 30.7071 47.5593 29.3054 45.7355 29.3054C43.9117 29.3054 42.5088 30.7071 42.5088 32.5294C42.5088 34.3517 43.9117 35.7534 45.7355 35.7534C47.5593 35.7534 48.9622 34.3517 48.9622 32.5294Z" fill="#1E394C"/>
<path d="M203.283 58.6027H156.145C153.76 58.6027 151.796 60.5652 151.796 62.9482V84.1147C151.796 86.4976 153.76 88.4601 156.145 88.4601H159.372V93.6466C159.372 94.3475 160.213 94.768 160.775 94.2073L167.088 88.4601H203.143C205.528 88.4601 207.492 86.4976 207.492 84.1147V62.9482C207.632 60.5652 205.668 58.6027 203.283 58.6027Z" fill="#62BDF4"/>
<path d="M168.351 75.8446C169.436 75.8446 170.315 74.966 170.315 73.8821C170.315 72.7983 169.436 71.9197 168.351 71.9197C167.266 71.9197 166.387 72.7983 166.387 73.8821C166.387 74.966 167.266 75.8446 168.351 75.8446Z" fill="#34648C"/>
<path d="M180.135 75.8447C181.22 75.8447 182.1 74.966 182.1 73.8822C182.1 72.7984 181.22 71.9197 180.135 71.9197C179.051 71.9197 178.171 72.7984 178.171 73.8822C178.171 74.966 179.051 75.8447 180.135 75.8447Z" fill="#34648C"/>
<path d="M191.218 75.8447C192.303 75.8447 193.183 74.966 193.183 73.8822C193.183 72.7984 192.303 71.9197 191.218 71.9197C190.134 71.9197 189.254 72.7984 189.254 73.8822C189.254 74.966 190.134 75.8447 191.218 75.8447Z" fill="#34648C"/>
<path d="M48.9618 115.654C48.9618 110.468 45.3143 105.281 40.8249 105.281C36.3356 105.281 32.688 110.468 32.688 115.654C32.688 120.841 36.3356 125.046 40.8249 125.046C45.3143 125.046 48.9618 120.841 48.9618 115.654Z" fill="#67B8EF"/>
<path opacity="0.25" d="M40.8251 105.281C40.1236 105.281 39.4222 105.422 38.7207 105.702C42.228 106.963 44.7533 111.309 44.7533 115.654C44.7533 120 42.228 123.644 38.7207 124.766C39.4222 124.906 40.1236 125.046 40.8251 125.046C45.3144 125.046 48.962 120.841 48.962 115.654C48.962 110.468 45.3144 105.281 40.8251 105.281Z" fill="#34648C"/>
<path d="M31.4253 121.822L32.8282 135.139C32.9685 136.821 34.3714 138.082 36.0549 138.082H44.4724C46.1559 138.082 47.5589 136.821 47.6991 135.139L49.1021 121.822C49.2424 121.121 48.6812 120.42 47.8394 120.42H32.6879C31.9865 120.42 31.4253 120.981 31.4253 121.822Z" fill="#CEE5ED"/>
<path d="M32.6879 122.383H48.2603C48.6812 122.383 49.1021 122.663 49.3826 123.084L49.5229 121.822C49.6632 121.121 49.1021 120.42 48.2603 120.42H32.6879C31.9865 120.42 31.4253 121.121 31.4253 121.822L31.5656 123.084C31.8462 122.663 32.1268 122.383 32.6879 122.383Z" fill="#AAC6CE"/>
<path d="M48.12 120.42H42.7889C43.4903 120.42 44.0515 121.121 44.0515 121.822L42.6486 135.139C42.5083 136.821 41.1054 138.082 39.4219 138.082H44.753C46.4365 138.082 47.8394 136.821 47.9797 135.139L49.3826 121.822C49.5229 120.981 48.9617 120.42 48.12 120.42Z" fill="#AAC6CE"/>
<path d="M116.162 214.198L115.601 217.982L118.406 221.767L125.842 218.122L126.684 214.618L117.424 213.216L116.162 214.198Z" fill="#F2BF75"/>
<path d="M122.054 226.533L122.755 225.552C122.896 225.412 123.176 225.412 123.317 225.552L124.018 226.393C124.299 226.813 124.719 226.954 125.281 226.954L142.537 226.673C142.817 226.393 142.957 225.692 142.537 225.412C140.011 222.889 126.403 218.403 125.702 218.123C125 217.702 120.932 220.926 115.32 217.982C115.32 217.982 114.478 222.328 114.338 225.131C114.338 226.253 115.18 227.234 116.302 227.234L120.651 227.094C121.352 227.094 121.773 226.813 122.054 226.533Z" fill="#1E394C"/>
<path d="M84.4557 149.296C84.4557 149.296 77.3008 157.146 90.3479 165.837C99.6072 171.864 106.762 170.042 112.514 173.687C113.917 174.528 114.899 175.789 115.039 177.471L115.32 214.478L116.021 214.758C119.529 216.44 123.597 216.58 127.104 214.898L132.295 172.705C132.435 169.762 130.892 167.379 129.068 164.996C119.108 152.24 101.291 147.894 96.8014 147.194C91.0494 146.212 84.4557 149.296 84.4557 149.296Z" fill="#1E394C"/>
<path d="M87.5421 214.198L86.981 217.982L89.9271 221.767L97.3626 218.263L98.2043 214.758L88.945 213.216L87.5421 214.198Z" fill="#F2BF75"/>
<path d="M93.4342 226.533L94.2759 225.552C94.4162 225.412 94.6968 225.412 94.8371 225.552L95.5385 226.533C95.8191 226.954 96.24 227.094 96.8012 227.094H114.057C114.338 226.813 114.478 226.253 114.057 225.832C111.532 223.309 98.0638 218.683 97.3623 218.263C96.6609 217.842 92.4521 221.066 86.9807 217.982C86.9807 217.982 85.9987 222.328 85.8584 225.131C85.8584 226.253 86.7001 227.234 87.8225 227.234H92.1715C92.7327 227.094 93.1536 226.954 93.4342 226.533Z" fill="#1E394C"/>
<path d="M62.7104 142.287C62.7104 142.287 54.0123 151.96 66.6386 162.893C75.477 170.603 83.3333 167.239 88.8047 172.005C90.0673 173.126 91.0494 174.528 90.9091 176.35L86.9809 213.777L87.2615 213.917C90.7688 216.16 95.1178 216.44 98.7654 214.758L108.586 175.088C109.147 172.005 107.884 169.201 106.341 166.538C97.6431 151.679 84.0348 142.848 79.4051 141.446C73.3726 139.764 62.7104 142.287 62.7104 142.287Z" fill="#1E394C"/>
<path d="M110.55 172.565C109.848 172.285 109.287 172.005 108.586 171.864C108.165 170.042 107.323 168.36 106.341 166.818C101.992 159.529 96.5207 153.642 91.4702 149.296C94.5566 148.735 96.2401 148.035 97.0819 147.193C98.7654 147.474 102.273 148.315 106.481 149.717C110.69 156.866 110.69 168.36 110.55 172.565Z" fill="#0F2A3F"/>
<path d="M85.9988 91.2635C85.9988 91.2635 73.5128 89.5814 68.322 99.3936C63.1312 109.066 55.4152 147.334 62.1492 148.455C65.0953 149.016 73.2322 150.978 82.0706 150.277C94.276 149.436 96.9415 148.315 97.7833 145.932L105.499 110.327C105.64 105.421 103.535 100.795 99.6071 97.7115C93.4342 93.0857 85.9988 91.2635 85.9988 91.2635Z" fill="#CEE5ED"/>
<path d="M105.499 107.244C105.499 107.244 105.64 128.691 112.374 129.952C119.108 131.214 137.065 130.793 137.065 130.793V137.662H98.625L105.499 107.244Z" fill="#AAC6CE"/>
<path d="M96.2403 97.4313L97.7835 89.8619L87.9631 82.4326L86.1393 91.4038C85.999 91.4038 89.0855 105.001 96.2403 97.4313Z" fill="#EA9249"/>
<path d="M108.726 75.4239C108.726 75.4239 103.535 77.9471 96.0997 73.3213C96.0997 73.3213 94.4162 76.4051 89.3657 79.2086C89.3657 79.2086 86.7002 74.8632 85.2973 78.0872C84.8764 79.0685 84.5958 80.0497 84.5958 80.7506C79.8259 74.5828 83.1929 66.5928 87.6822 62.2474C91.891 58.1823 100.87 59.7242 106.622 62.1072C112.654 64.4902 113.776 60.285 113.776 60.285C121.072 71.0785 108.726 75.4239 108.726 75.4239Z" fill="#1E394C"/>
<path d="M89.2255 79.3485C89.2255 79.3485 86.5599 75.0031 85.157 78.2271C83.3332 82.2922 85.4376 84.6752 87.8226 84.6752C87.8226 84.6752 89.7867 95.0482 99.3265 94.3473C108.866 93.6464 110.269 78.2271 108.726 75.4236C108.726 75.4236 103.535 77.9468 96.0998 73.321C96.0998 73.321 94.4163 76.545 89.2255 79.3485Z" fill="#F2BF75"/>
<path d="M172.138 103.599H132.295C130.331 103.599 128.647 105.001 128.227 106.963L122.896 133.036H171.296L176.206 108.645C176.768 105.982 174.803 103.599 172.138 103.599Z" fill="#CEE5ED"/>
<path d="M171.016 133.036H105.078C103.956 133.036 103.114 133.877 103.114 134.999V135.7C103.114 136.821 103.956 137.662 105.078 137.662H171.016C172.138 137.662 172.98 136.821 172.98 135.7V134.999C173.12 133.877 172.138 133.036 171.016 133.036Z" fill="#80A9B2"/>
<path d="M171.015 133.036H122.334C123.456 133.036 124.298 133.877 124.298 134.999V135.7C124.298 136.821 123.456 137.662 122.334 137.662H171.015C172.138 137.662 172.979 136.821 172.979 135.7V134.999C173.12 133.877 172.138 133.036 171.015 133.036Z" fill="#AAC6CE"/>
<path d="M107.323 131.634C99.6072 130.793 77.7217 128.55 74.0741 128.13C69.3042 127.709 79.5455 108.645 80.6678 102.197C81.7901 95.7492 76.8799 95.4689 76.8799 95.4689C74.0741 95.1885 70.9877 95.4689 68.4624 99.3938C63.1313 107.384 57.2391 130.933 60.3255 136.821C60.7464 137.521 61.4478 137.942 62.1493 137.942H107.323V131.634Z" fill="#CEE5ED"/>
<path d="M107.323 131.634C107.323 131.634 79.2649 129.672 73.2323 128.831C68.6027 128.27 78.2828 108.786 79.4051 102.197C80.5275 95.609 75.477 96.0295 75.477 96.0295C74.2143 95.8894 72.3906 96.0295 71.1279 96.4501C72.9517 95.1885 74.9158 95.1885 76.8799 95.3287C76.8799 95.3287 81.7901 95.609 80.6678 102.057C79.5454 108.505 70.7071 127.148 73.6532 127.849C77.3008 128.831 99.4669 130.653 107.323 131.634Z" fill="#AAC6CE"/>
<path d="M107.323 137.942H117.845C118.687 137.942 119.108 137.101 118.687 136.4C117.705 134.858 116.162 132.756 115.039 132.475C114.338 132.195 109.287 132.475 107.464 132.616V137.942H107.323Z" fill="#F2BF75"/>
<path opacity="0.67" d="M108.726 75.4238C108.726 75.4238 107.884 75.8444 106.341 75.9845C106.201 76.6854 105.92 78.0872 105.92 79.3487C105.78 81.171 106.621 86.9182 106.06 86.9182C105.499 86.9182 104.236 86.9182 104.236 86.9182C104.236 86.9182 103.395 95.1886 95.1175 93.7868C94.9772 93.7868 94.9772 93.7868 94.8369 93.7868C96.0995 94.2073 97.5025 94.4877 99.186 94.3475C109.006 93.6466 110.409 78.3675 108.726 75.4238Z" fill="#EA9249"/>
<path d="M228.816 195.134C228.816 195.134 242.004 188.686 238.356 178.733C234.849 168.921 232.604 168.501 239.338 162.894C246.212 157.287 256.033 143.409 243.547 142.288C231.061 141.306 231.622 157.847 221.24 160.09C210.859 162.473 205.247 205.927 228.816 195.134Z" fill="#67B8EF"/>
<path opacity="0.25" d="M218.435 196.115C220.96 197.237 224.327 197.237 228.816 195.134C228.816 195.134 242.004 188.686 238.356 178.733C234.849 168.921 232.604 168.501 239.338 162.894C246.212 157.287 256.033 143.409 243.547 142.288C242.284 142.148 241.162 142.288 240.18 142.428C243.687 143.83 247.194 146.773 242.705 152.1C235.129 161.071 231.061 164.155 232.043 170.043C232.885 175.65 232.464 188.546 218.435 196.115Z" fill="#34648C"/>
<path d="M206.509 194.854C206.509 194.854 195.006 194.433 195.567 186.163C196.128 177.892 196.549 177.472 189.254 174.949C176.487 170.323 186.588 145.652 196.97 161.212C204.265 172.005 207.351 169.482 212.121 170.323C216.891 171.164 227.132 198.498 206.509 194.854Z" fill="#67B8EF"/>
<path opacity="0.29" d="M212.121 170.323C207.351 169.482 204.265 171.865 196.97 161.211C191.498 153.081 186.167 156.025 184.063 161.211C187.149 160.23 191.779 159.669 192.34 164.716C193.042 171.164 208.333 181.817 208.053 195.134C208.193 195.134 208.474 195.134 208.614 195.134C210.859 189.246 213.805 181.677 216.19 175.229C214.927 172.425 213.384 170.463 212.121 170.323Z" fill="#34648C"/>
<path d="M209.175 194.433C209.175 194.433 194.865 180.415 199.775 178.032C204.686 175.649 214.226 183.359 208.894 175.089C203.563 166.678 197.25 153.782 204.686 155.744C212.121 157.707 212.682 160.09 211.7 150.278C210.578 137.662 217.593 131.214 224.186 135.279C230.78 139.344 218.575 167.099 223.064 164.155C227.694 161.211 231.481 158.688 232.323 162.333C233.305 165.977 219.276 180.135 224.467 177.752C230.92 174.808 231.902 180.135 229.798 183.359C227.834 186.723 219.276 206.488 209.175 194.433Z" fill="#34648C"/>
<path opacity="0.48" d="M229.798 183.359C231.902 179.995 230.92 174.668 224.467 177.752C219.276 180.135 233.305 165.978 232.323 162.333C231.341 158.688 227.553 161.212 223.064 164.155C218.434 167.099 230.78 139.344 224.186 135.279C221.1 133.317 218.014 133.737 215.629 135.98C218.996 136.821 221.801 139.625 219.837 147.054C215.769 162.894 213.384 175.93 220.679 172.145C227.553 168.501 212.682 185.182 212.402 197.377C221.1 202.283 227.974 186.303 229.798 183.359Z" fill="#1E394C"/>
<path d="M199.215 196.115L202.02 221.206C202.301 224.29 204.966 226.673 208.193 226.673H224.186C227.413 226.673 229.938 224.29 230.359 221.206L233.165 196.115C233.305 194.713 232.183 193.592 230.92 193.592H201.599C200.197 193.592 199.074 194.713 199.215 196.115Z" fill="#CEE5ED"/>
<path d="M230.78 193.592H220.539C221.942 193.592 222.924 194.854 222.783 196.115L219.978 221.206C219.697 224.29 217.031 226.673 213.805 226.673H224.046C227.273 226.673 229.798 224.29 230.219 221.206L233.025 196.115C233.305 194.713 232.183 193.592 230.78 193.592Z" fill="#AAC6CE"/>
<path d="M199.635 137.802H27.7773C25.8132 137.802 24.27 139.344 24.27 141.307V142.428C24.27 144.39 25.8132 145.932 27.7773 145.932H199.775C201.739 145.932 203.282 144.39 203.282 142.428V141.307C203.142 139.344 201.599 137.802 199.635 137.802Z" fill="#3E8CCC"/>
<path d="M199.635 137.802H27.7773C25.8132 137.802 24.27 139.344 24.27 141.307V142.428C24.27 142.848 24.4103 143.129 24.4103 143.549C24.8312 142.148 26.2341 141.166 27.7773 141.166H199.775C201.318 141.166 202.581 142.148 203.142 143.549C203.282 143.269 203.282 142.848 203.282 142.428V141.307C203.142 139.344 201.599 137.802 199.635 137.802Z" fill="#2173AA"/>
<path d="M82.0701 226.814H76.3181L36.335 145.932H42.0869L82.0701 226.814Z" fill="#34648C"/>
<path d="M18.7988 226.814H24.5508L64.534 145.932H58.782L18.7988 226.814Z" fill="#34648C"/>
<path d="M205.808 226.814H200.056L160.073 145.932H165.825L205.808 226.814Z" fill="#34648C"/>
<path d="M142.536 226.814H148.288L188.271 145.932H182.519L142.536 226.814Z" fill="#34648C"/>
<path d="M43.6301 149.156L42.0869 145.932H36.335L37.8782 149.156H43.6301Z" fill="#1A3651"/>
<path d="M62.9907 149.156L64.5339 145.932H58.782L57.2388 149.156H62.9907Z" fill="#1A3651"/>
<path d="M167.508 149.156L165.825 145.932H160.073L161.756 149.156H167.508Z" fill="#1A3651"/>
<path d="M186.728 149.156L188.271 145.932H182.519L180.976 149.156H186.728Z" fill="#1A3651"/>
<defs>
<linearGradient id="paint0_linear_31_2938" x1="124.975" y1="209.886" x2="124.975" y2="-34.0193" gradientUnits="userSpaceOnUse">
<stop stop-color="white"/>
<stop offset="0.1258" stop-color="#F8FCFE"/>
<stop offset="0.3051" stop-color="#E6F3FC"/>
<stop offset="0.5164" stop-color="#C7E5F9"/>
<stop offset="0.7522" stop-color="#9CD1F5"/>
<stop offset="1" stop-color="#67B8EF"/>
</linearGradient>
</defs>
</svg>
