<svg width="250" height="238" viewBox="0 0 250 238" fill="none" xmlns="http://www.w3.org/2000/svg">
<path opacity="0.42" d="M53.0464 232.457H196.954C229.03 210.416 250 174.059 250 132.911C250 65.6525 194.04 1.47546 125.007 1.47546C55.9598 1.47546 0 65.6525 0 132.911C0 174.059 20.9701 210.416 53.0464 232.457Z" fill="url(#paint0_linear_31_2826)"/>
<path opacity="0.43" d="M122.242 238C179.57 238 226.043 235.683 226.043 232.825C226.043 229.967 179.57 227.65 122.242 227.65C64.9145 227.65 18.4414 229.967 18.4414 232.825C18.4414 235.683 64.9145 238 122.242 238Z" fill="#CEE5ED"/>
<path d="M107.602 213.482L108.371 218.362L104.703 223.169L95.1793 218.687L94.085 214.219L105.857 212.288L107.602 213.482Z" fill="#F2BF75"/>
<path d="M100.178 229.316L99.187 228.122C99.0096 227.901 98.6694 227.901 98.492 228.122L97.5307 229.287C97.1462 229.759 96.5547 230.024 95.9483 230.024L73.943 229.95C73.5141 229.523 73.3958 228.8 73.8838 228.299C77.0634 225.011 94.3364 219.173 95.1941 218.686C96.0519 218.2 101.42 222.24 108.385 218.362C108.385 218.362 109.598 223.832 109.82 227.385C109.909 228.83 108.77 230.068 107.321 230.068L101.731 230.053C101.124 230.039 100.548 229.773 100.178 229.316Z" fill="#1E394C"/>
<path d="M142.842 213.674L143.626 218.554L139.958 223.375L130.435 218.878L129.34 214.426L141.097 212.479L142.842 213.674Z" fill="#F2BF75"/>
<path d="M135.418 229.523L134.427 228.328C134.25 228.107 133.91 228.107 133.732 228.328L132.771 229.493C132.386 229.965 131.795 230.23 131.189 230.23L109.183 230.157C108.754 229.729 108.636 229.007 109.124 228.505C112.304 225.218 129.577 219.379 130.434 218.893C131.292 218.406 136.66 222.446 143.626 218.568C143.626 218.568 144.838 224.038 145.06 227.591C145.149 229.036 144.01 230.274 142.561 230.274L136.971 230.26C136.365 230.245 135.803 229.98 135.418 229.523Z" fill="#1E394C"/>
<path d="M92.1177 55.6714L85.4185 81.1623L67.199 69.0287L58.947 75.5599L82.7418 97.7631L99.8669 81.9437L92.1177 55.6714Z" fill="#CEE5ED"/>
<path d="M67.1693 69.0433L61.8602 58.6051C61.2835 57.4846 59.8786 57.0866 58.799 57.7353C55.8561 59.475 54.3329 62.8806 55.0575 66.2126C55.7821 69.5445 56.9948 73.481 58.9469 75.5597L67.1693 69.0433Z" fill="#F2BF75"/>
<path d="M60.6181 48.8896L54.8062 48.4178C53.9633 48.3441 53.4161 48.8896 53.6083 49.6267L57.7343 65.9179C57.9266 66.6404 58.7548 67.3038 59.5977 67.3628L65.4096 67.8345C66.7701 67.9377 67.5539 70.3409 66.6075 66.6256L62.4815 50.3344C62.304 49.612 61.4611 48.9633 60.6181 48.8896Z" fill="#1E394C"/>
<path d="M67.1989 69.0873L68.4116 65.2246C68.9292 64.2368 68.6334 63.0279 67.7165 62.3939L65.6905 60.9933C65.0842 60.5805 64.2708 60.6837 63.7828 61.2292C63.2356 61.8484 63.3243 62.8067 63.9898 63.308L64.9215 64.0304L65.868 64.7381L63.6201 68.129L67.1989 69.0873Z" fill="#F2BF75"/>
<path d="M144.026 214.809C144.026 209.118 137.385 114.334 137.385 114.334C137.385 114.334 123.987 101.331 116.696 102.717C109.406 101.346 92.8276 110.973 92.8276 110.973C92.8276 110.973 93.1678 209.118 93.1678 214.809H108.962C108.962 214.809 109.065 169.621 115.232 136.995C115.513 135.535 117.746 135.388 118.027 136.847C124.179 169.474 128.231 214.809 128.231 214.809H144.026Z" fill="#1E394C"/>
<path d="M117.007 40.2793C117.007 40.2793 135.655 44.8202 138.228 47.7983C140.801 50.7617 150.503 69.2496 150.325 75.4712C150.118 82.7691 137.592 98.3231 137.829 97.409V119.362C137.829 119.362 109.272 128.252 92.0141 117.386C92.0141 117.386 90.0324 60.9787 92.4134 54.6981C93.138 52.7668 102.529 44.6138 105.309 43.626C108.074 42.6529 117.007 40.2793 117.007 40.2793Z" fill="#CEE5ED"/>
<path d="M150.325 75.4713C150.148 81.973 140.151 95.0502 138.169 97.1585C138.169 97.1585 138.169 97.1585 138.154 97.1733C137.947 97.3354 137.829 97.4091 137.829 97.4091L131.529 103.041L123.942 96.215C123.942 96.215 137.918 86.2781 135.995 73.5252C134.635 64.5466 125.288 48.4618 125.288 48.4618C122.079 46.6484 118.929 43.3607 116.489 40.3973C116.814 40.3089 117.007 40.2646 117.007 40.2646C117.007 40.2646 135.655 44.8055 138.228 47.7689C140.801 50.7618 150.488 69.2497 150.325 75.4713Z" fill="#CEE5ED"/>
<path d="M147.707 70.6946H86.2019C82.49 70.6946 79.4731 73.7022 79.4731 77.4027V105.312C79.4731 109.012 82.49 112.02 86.2019 112.02H147.707C151.419 112.02 154.436 109.012 154.436 105.312V77.4027C154.436 73.7022 151.419 70.6946 147.707 70.6946Z" fill="#87D3F9"/>
<path opacity="0.25" d="M147.708 70.6943H139.751C143.463 70.6943 146.48 73.7019 146.48 77.4025V105.311C146.48 109.012 143.463 112.019 139.751 112.019H147.708C151.42 112.019 154.436 109.012 154.436 105.311V77.4025C154.436 73.7019 151.42 70.6943 147.708 70.6943Z" fill="#003DA6"/>
<path d="M154.436 84.0519H79.4729V93.6497H154.436V84.0519Z" fill="#1E394C"/>
<path d="M101.345 100.122H86.5864V102.156H101.345V100.122Z" fill="#1E394C"/>
<path d="M93.7293 104.663H86.5864V106.697H93.7293V104.663Z" fill="#1E394C"/>
<path d="M117.998 29.9443V43.1395C117.998 43.1395 113.68 56.3346 103.727 45.9554L102.84 35.4288L117.998 29.9443Z" fill="#EA9249"/>
<path d="M92.1176 19.6243C92.1176 19.6243 75.2586 16.0712 85.6698 1.72606C85.6698 1.72606 87.4592 9.33353 96.5837 2.81705C101.227 -0.514901 108.134 -1.34052 115.824 2.81705C124.061 7.26949 126.93 20.9069 119.89 28.0279L106.108 25.2561L92.1176 19.6243Z" fill="#1E394C"/>
<path d="M92.118 19.6243C92.118 19.6243 90.1363 42.4614 105.309 40.9724C117.155 39.8076 116.711 30.888 116.711 30.888C116.711 30.888 120.571 30.0919 120.778 26.642C120.985 23.1921 119.891 20.3172 116.416 22.5876C116.416 22.5876 110.263 18.6365 109.864 15.8647C109.864 15.8647 102.633 19.8159 92.118 19.6243Z" fill="#F2BF75"/>
<path d="M112.111 117.74C111.342 118.683 111.609 120.187 112.733 121.087L115.306 123.165C116.43 124.065 117.953 124.02 118.722 123.077L126.796 113.052L119.077 107.125L110.677 113.037C110.085 113.45 110.1 114.349 110.707 114.732C111.062 114.953 111.52 115.101 112.097 115.012C113.679 114.762 114.33 113.877 114.33 113.877L112.111 117.74Z" fill="#F6BA8E"/>
<path d="M117.613 107.228L126.634 114.467C126.634 114.467 151.124 87.4427 151.227 77.1225C151.287 71.3137 144.203 57.3224 139.781 49.7739H123.898C123.898 49.7739 135.226 66.7728 138.642 74.9258C139.293 76.4738 139.101 78.243 138.14 79.6288C134.014 85.644 121.798 103.218 117.613 107.228Z" fill="#CEE5ED"/>
<path d="M139.781 49.7739C139.781 49.7739 148.831 72.1393 148.787 76.6212C148.698 85.5114 129.133 106.668 124.075 112.403L126.634 114.452C126.634 114.452 151.138 87.428 151.227 77.1077C151.286 71.3137 144.203 57.3224 139.781 49.7739Z" fill="#B4CCD3"/>
<path d="M136.291 70.5181L135.788 70.695H94.8684L94.3064 70.5181L132.771 69.5303C132.771 69.5303 127.773 55.7012 128.557 56.0993C129.37 56.4973 136.291 70.5181 136.291 70.5181Z" fill="#B4CCD3"/>
<path d="M98.7872 37.6403C97.1753 35.9301 96.9387 32.893 96.9387 32.893C96.9387 32.893 95.1345 32.893 94.8979 32.6572C94.6612 32.4213 95.4598 26.1112 95.3119 25.0055C95.2084 24.2241 94.8091 21.187 94.5725 19.521C93.5373 19.58 93.2268 19.6242 92.1028 19.6095C92.1028 19.6095 90.1212 42.4466 105.294 40.9576C101.612 41.0313 100.399 39.3506 98.7872 37.6403Z" fill="#EA9249"/>
<path d="M67.5984 27.4673C66.3414 20.4791 59.6422 15.8497 52.6324 17.1029C45.6227 18.3561 40.9791 25.0347 42.2361 32.023C43.4783 38.8933 49.9853 43.4932 56.8619 42.4464L59.5091 45.4835L60.0563 41.5323C65.4097 39.2176 68.678 33.4531 67.5984 27.4673ZM48.3438 30.9467C47.4712 30.9467 46.7614 30.2391 46.7614 29.3692C46.7614 28.4994 47.4712 27.7917 48.3438 27.7917C49.2163 27.7917 49.9261 28.4994 49.9261 29.3692C49.9261 30.2391 49.2163 30.9467 48.3438 30.9467ZM54.7324 30.9467C53.8599 30.9467 53.15 30.2391 53.15 29.3692C53.15 28.4994 53.8599 27.7917 54.7324 27.7917C55.6049 27.7917 56.3148 28.4994 56.3148 29.3692C56.3296 30.2391 55.6197 30.9467 54.7324 30.9467ZM61.0471 30.9467C60.1746 30.9467 59.4647 30.2391 59.4647 29.3692C59.4647 28.4994 60.1746 27.7917 61.0471 27.7917C61.9196 27.7917 62.6295 28.4994 62.6295 29.3692C62.6443 30.2391 61.9344 30.9467 61.0471 30.9467Z" fill="#0E5C77"/>
<path d="M218.634 166.687C223.292 161.763 224.446 155.291 221.207 152.254C217.968 149.202 211.565 150.72 206.892 155.645C202.233 160.569 198.906 169.326 202.144 172.378C205.398 175.43 213.975 171.611 218.634 166.687Z" fill="#003DA6"/>
<path opacity="0.26" d="M221.222 152.254C220.216 151.31 218.9 150.809 217.436 150.706C217.584 150.824 217.746 150.942 217.894 151.074C221.133 154.126 219.979 160.584 215.321 165.508C211.816 169.208 206.093 172.29 202.1 172.275C202.13 172.305 202.144 172.349 202.189 172.378C205.428 175.43 214.005 171.612 218.663 166.687C223.307 161.763 224.46 155.306 221.222 152.254Z" fill="#0F2A3F"/>
<path d="M194.942 147.728C195.563 141.078 192.739 135.388 188.628 135.004C184.516 134.621 180.671 139.693 180.05 146.342C179.429 152.991 181.958 161.763 186.069 162.146C190.18 162.544 194.306 154.377 194.942 147.728Z" fill="#67B8EF"/>
<path opacity="0.25" d="M188.613 135.004C187.844 134.931 187.09 135.049 186.365 135.329C189.737 136.67 191.911 141.816 191.364 147.728C190.846 153.227 187.933 159.758 184.605 161.631C185.064 161.925 185.566 162.102 186.084 162.161C190.195 162.545 194.321 154.377 194.942 147.742C195.564 141.093 192.724 135.388 188.613 135.004Z" fill="#003DA6"/>
<path d="M174.919 142.626C172.065 137.024 166.948 133.913 163.487 135.668C160.027 137.422 159.524 143.378 162.378 148.981C165.232 154.583 171.68 160.289 175.141 158.534C178.601 156.78 177.773 148.229 174.919 142.626Z" fill="#003DA6"/>
<path opacity="0.26" d="M174.919 142.626C172.065 137.024 166.948 133.913 163.487 135.668C162.156 136.346 161.269 137.628 160.84 139.28C161.151 138.985 161.506 138.719 161.905 138.513C165.365 136.759 170.482 139.869 173.336 145.472C175.333 149.394 176.338 154.775 175.555 158.254C178.512 156.028 177.64 147.978 174.919 142.626Z" fill="#0F2A3F"/>
<path d="M169.418 166.009C163.916 163.562 158.311 164.137 156.892 167.307C155.472 170.477 158.77 175.032 164.256 177.494C169.758 179.942 177.921 180.502 179.341 177.332C180.76 174.162 174.904 168.472 169.418 166.009Z" fill="#67B8EF"/>
<path opacity="0.25" d="M169.418 166.009C163.916 163.562 158.311 164.137 156.892 167.307C156.552 168.044 156.492 168.87 156.64 169.71C158.164 166.658 163.68 166.113 169.107 168.53C173.529 170.506 178.172 174.575 179.089 177.745C179.193 177.612 179.282 177.465 179.356 177.317C180.76 174.162 174.904 168.472 169.418 166.009Z" fill="#003DA6"/>
<path d="M220.142 185.352C225.629 183.406 229.045 178.909 227.758 175.327C226.472 171.744 220.985 170.417 215.498 172.363C210.012 174.31 204.052 179.706 205.339 183.288C206.625 186.871 214.656 187.298 220.142 185.352Z" fill="#003DA6"/>
<path opacity="0.26" d="M227.758 175.327C227.211 173.794 225.88 172.673 224.12 172.039C224.756 172.6 225.259 173.278 225.54 174.059C226.827 177.642 223.411 182.138 217.924 184.084C214.212 185.397 209.347 185.633 206.182 184.527C208.696 186.93 215.38 187.033 220.157 185.338C225.629 183.406 229.045 178.91 227.758 175.327Z" fill="#0F2A3F"/>
<path d="M191.6 205.064C192.872 189.495 199.704 175.342 211.106 164.624C211.55 164.211 210.885 163.533 210.426 163.945C198.847 174.855 191.94 189.23 190.654 205.064C190.609 205.669 191.556 205.669 191.6 205.064Z" fill="#1E394C"/>
<path d="M188.14 202.852C188.524 183.657 182.476 165.243 170.748 149.998C170.379 149.526 169.55 149.998 169.92 150.47C181.544 165.582 187.563 183.804 187.178 202.838C187.178 203.457 188.125 203.457 188.14 202.852Z" fill="#1E394C"/>
<path d="M184.117 174.973C186.72 166.732 187.371 157.974 187.696 149.379C187.726 148.774 186.764 148.774 186.75 149.379C186.439 157.9 185.774 166.555 183.2 174.722C183.008 175.312 183.94 175.563 184.117 174.973Z" fill="#1E394C"/>
<path d="M169.329 173.381C173.913 176.256 179.252 178.438 184.309 180.354C184.886 180.575 185.138 179.646 184.561 179.44C179.592 177.568 174.312 175.386 169.802 172.57C169.284 172.245 168.811 173.056 169.329 173.381Z" fill="#1E394C"/>
<path d="M209.879 180.782C205.294 182.684 200.606 184.246 195.785 185.47C195.194 185.617 195.445 186.532 196.037 186.384C200.858 185.16 205.546 183.598 210.13 181.696C210.692 181.46 210.441 180.546 209.879 180.782Z" fill="#1E394C"/>
<path d="M172.183 200.656L175.081 226.766C175.436 230.024 178.217 232.501 181.5 232.501H198.196C201.494 232.501 204.259 230.024 204.614 226.766L207.513 200.656C207.675 199.24 206.551 197.987 205.117 197.987H174.579C173.144 197.987 172.02 199.24 172.183 200.656Z" fill="#CEE5ED"/>
<path d="M205.117 197.987H194.528C195.963 197.987 197.072 199.226 196.924 200.656L194.026 226.766C193.671 230.024 190.89 232.501 187.607 232.501H198.196C201.494 232.501 204.259 230.024 204.614 226.766L207.513 200.656C207.661 199.24 206.552 197.987 205.117 197.987Z" fill="#AAC6CE"/>
<defs>
<linearGradient id="paint0_linear_31_2826" x1="125.003" y1="214.76" x2="125.003" y2="-41.7715" gradientUnits="userSpaceOnUse">
<stop stop-color="white"/>
<stop offset="0.1258" stop-color="#F8FCFE"/>
<stop offset="0.3051" stop-color="#E6F3FC"/>
<stop offset="0.5164" stop-color="#C7E5F9"/>
<stop offset="0.7522" stop-color="#9CD1F5"/>
<stop offset="1" stop-color="#67B8EF"/>
</linearGradient>
</defs>
</svg>
