<svg width="240" height="283" viewBox="0 0 240 283" fill="none" xmlns="http://www.w3.org/2000/svg">
<path opacity="0.43" d="M222.32 240.796C222.168 237.158 204.376 230.944 182.327 226.851C160.429 222.759 142.637 222.456 142.79 226.094C142.942 229.731 160.733 235.946 182.783 240.038C204.68 244.13 222.472 244.433 222.32 240.796Z" fill="#CEE5ED"/>
<path opacity="0.42" d="M50.9521 258.694H189.048C219.846 237.474 240 202.674 240 163.206C240 98.698 186.351 37.1611 120.071 37.1611C53.6487 37.0197 0 98.698 0 163.206C0 202.674 20.1538 237.616 50.9521 258.694Z" fill="url(#paint0_linear_31_2880)"/>
<path opacity="0.43" d="M187.242 267.558C189.209 259.03 153.275 243.516 106.98 232.905C60.6857 222.295 21.5616 220.607 19.5943 229.135C17.6269 237.664 53.5611 253.178 99.8556 263.788C146.15 274.399 185.274 276.087 187.242 267.558Z" fill="#CEE5ED"/>
<path d="M144.908 168.015C136.96 165.186 130.431 156.415 130.431 148.493V14.5268C130.431 6.60481 136.96 2.50235 144.908 5.4731L203.24 26.6927C211.188 29.522 217.717 38.2927 217.717 46.2147V180.181C217.717 188.103 211.188 192.206 203.24 189.235L144.908 168.015Z" fill="#17161C"/>
<path d="M145.76 172.401C137.386 169.289 130.574 160.094 130.574 151.747V10.5661C130.574 2.21976 137.386 -2.02416 145.76 0.946584L207.215 23.2979C215.589 26.4101 222.401 35.6053 222.401 43.9516V185.133C222.401 193.479 215.589 197.723 207.215 194.752L145.76 172.401Z" fill="#1E394C"/>
<path d="M144.908 162.64C139.941 160.801 135.967 155.425 135.967 150.474V16.5076C135.967 11.5563 139.941 9.15142 144.908 10.849L203.24 32.0686C208.208 33.9076 212.182 39.2833 212.182 44.2345V178.201C212.182 183.152 208.208 185.557 203.24 183.859L144.908 162.64Z" fill="#62BDF4"/>
<path opacity="0.25" d="M203.241 32.0686L144.908 10.849C141.36 9.57586 138.38 10.4246 136.96 12.8295C138.522 11.9807 140.509 11.9807 142.779 12.8295L201.112 34.0491C206.079 35.8882 210.053 41.2638 210.053 46.215V180.181C210.053 181.596 209.769 182.869 209.06 183.86C210.905 182.869 212.182 180.889 212.182 178.342V44.376C212.182 39.2833 208.208 33.9077 203.241 32.0686Z" fill="#34648C"/>
<path d="M195.718 28.2488L152.289 12.5463L154.276 17.7804C155.127 20.1853 157.114 22.1658 159.385 23.0146L188.764 33.6244C191.035 34.4732 193.022 33.9073 193.873 32.2098L195.718 28.2488Z" fill="#1E394C"/>
<path d="M200.828 50.4589L147.179 30.9368C144.341 29.9466 141.928 31.3612 141.928 34.1905V58.2394C141.928 61.0687 144.199 64.3223 147.179 65.3126L200.828 84.9761C203.667 85.9663 206.079 84.5517 206.079 81.7224V57.6735C206.079 54.7028 203.667 51.5906 200.828 50.4589Z" fill="#87D3F9"/>
<path d="M200.828 92.8983L147.179 73.3763C144.341 72.386 141.928 73.8007 141.928 76.6299V100.679C141.928 103.508 144.199 106.762 147.179 107.752L200.828 127.274C203.667 128.264 206.079 126.85 206.079 124.02V99.9715C206.079 97.1422 203.667 93.8886 200.828 92.8983Z" fill="#87D3F9"/>
<path d="M200.828 135.62L147.179 116.098C144.341 115.108 141.928 116.523 141.928 119.352V143.401C141.928 146.23 144.199 149.484 147.179 150.474L200.828 169.996C203.667 170.986 206.079 169.572 206.079 166.742V142.693C206.079 139.864 203.667 136.752 200.828 135.62Z" fill="#87D3F9"/>
<path d="M183.655 54.5614L165.062 47.7711C164.494 47.4882 163.927 47.9126 163.927 48.4784C163.927 49.0443 164.494 49.7516 165.062 50.0345L183.655 56.8248C184.222 57.1077 184.79 56.6833 184.79 56.1175C184.79 55.4101 184.364 54.7028 183.655 54.5614Z" fill="#1E394C"/>
<path d="M183.655 67.1519L165.062 60.3616C164.494 60.0787 163.927 60.5031 163.927 61.0689C163.927 61.6348 164.494 62.3421 165.062 62.625L183.655 69.4153C184.222 69.6982 184.79 69.2738 184.79 68.708C184.79 68.1421 184.364 67.4348 183.655 67.1519Z" fill="#1E394C"/>
<path d="M189.332 63.0495L158.675 51.8738C158.108 51.5909 157.54 52.0153 157.54 52.5811C157.54 53.147 158.108 53.8543 158.675 54.1372L189.332 65.3129C189.9 65.5958 190.467 65.1714 190.467 64.6056C190.467 63.8983 190.042 63.1909 189.332 63.0495Z" fill="#1E394C"/>
<path d="M183.655 99.9714L165.062 93.1812C164.494 92.8983 163.927 93.3226 163.927 93.8885C163.927 94.4544 164.494 95.1617 165.062 95.4446L183.655 102.235C184.222 102.518 184.79 102.093 184.79 101.528C184.79 100.82 184.364 100.254 183.655 99.9714Z" fill="#1E394C"/>
<path d="M189.332 108.459L158.675 97.2835C158.108 97.0006 157.54 97.425 157.54 97.9909C157.54 98.5567 158.108 99.264 158.675 99.547L189.332 110.723C189.9 111.006 190.467 110.581 190.467 110.015C190.467 109.308 190.042 108.742 189.332 108.459Z" fill="#1E394C"/>
<path d="M183.655 139.723L165.062 132.933C164.494 132.65 163.927 133.074 163.927 133.64C163.927 134.206 164.494 134.913 165.062 135.196L183.655 141.986C184.222 142.269 184.79 141.845 184.79 141.279C184.79 140.572 184.364 139.864 183.655 139.723Z" fill="#1E394C"/>
<path d="M183.655 152.172L165.062 145.381C164.494 145.099 163.927 145.523 163.927 146.089C163.927 146.655 164.494 147.362 165.062 147.645L183.655 154.435C184.222 154.718 184.79 154.294 184.79 153.728C184.79 153.162 184.364 152.455 183.655 152.172Z" fill="#1E394C"/>
<path d="M189.332 148.211L158.675 137.035C158.108 136.752 157.54 137.177 157.54 137.742C157.54 138.308 158.108 139.016 158.675 139.298L189.332 150.474C189.9 150.757 190.467 150.333 190.467 149.767C190.467 149.06 190.042 148.352 189.332 148.211Z" fill="#1E394C"/>
<path d="M130.857 244.548C130.857 244.548 128.019 243.557 127.735 237.474H119.503L118.652 245.962L124.755 251.055L130.006 248.367L130.857 244.548Z" fill="#F2BF75"/>
<path d="M118.794 245.821C118.794 245.821 128.303 248.933 130.857 244.548C130.857 244.548 148.457 251.055 148.315 253.035C148.173 256.148 133.554 256.714 130.29 256.006L127.451 253.177L126.174 256.431H118.084C118.368 256.431 118.368 246.387 118.794 245.821Z" fill="#1E394C"/>
<path d="M100.343 244.689C100.343 244.689 97.6465 243.557 97.5046 237.474L89.4147 237.05L88.2793 245.396L94.0983 250.772L99.4916 248.367L100.343 244.689Z" fill="#F2BF75"/>
<path d="M88.2788 245.396C88.2788 245.396 97.6461 248.933 100.485 244.689C100.485 244.689 115.955 250.206 116.806 252.752C117.658 255.299 102.614 256.996 99.4911 256.006L96.7945 253.035L95.3752 256.148L87.4273 255.723C87.2853 255.865 87.853 245.821 88.2788 245.396Z" fill="#1E394C"/>
<path d="M82.7439 148.211C82.7439 148.211 87.9952 169.572 89.2726 173.25C90.5499 176.786 93.2466 194.186 93.3885 194.752C93.5304 195.318 87.4275 240.162 87.4275 240.162C87.4275 240.162 95.8013 242.001 99.0656 239.879L108.149 194.611L104.175 150.05L82.7439 148.211Z" fill="#1E394C"/>
<path d="M83.8792 147.079C83.8792 147.079 92.111 160.942 99.3493 167.167C106.588 173.391 115.671 190.084 115.671 190.084L116.806 239.738C120.355 241.86 124.612 242.001 128.303 240.021L128.87 239.738C128.87 239.738 130.148 188.104 130.006 184.708C129.722 181.313 111.555 141.845 111.555 141.845L83.8792 147.079Z" fill="#1E394C"/>
<path d="M115.387 55.8348C115.387 55.8348 109.001 78.3276 98.7818 77.6203C89.8403 77.0544 88.1372 67.7178 90.2661 56.2592C92.537 44.3762 102.33 45.9323 108.149 45.9323C108.149 45.9323 115.245 45.9323 116.381 40.4152C116.381 40.5567 124.755 51.7323 115.387 55.8348Z" fill="#1E394C"/>
<path d="M99.2077 83.2783C99.2077 83.2783 86.7181 81.0149 80.899 107.752C78.4863 118.927 91.2598 136.469 91.2598 136.469L104.601 110.864L99.2077 83.2783Z" fill="#AAC6CE"/>
<path d="M151.721 68.142C151.721 68.142 156.405 55.1273 156.405 51.5907C156.405 48.0541 159.101 51.1663 158.96 53.8541C158.818 56.5419 158.25 59.5127 158.25 59.5127C158.25 59.5127 161.94 59.7956 161.94 61.4932C161.94 63.1907 160.805 69.2737 159.101 70.1225L151.721 68.142Z" fill="#F2BF75"/>
<path d="M106.162 84.9762C114.536 89.2201 132.276 100.396 136.392 96.7177C140.508 93.0396 151.721 68.0005 151.721 68.0005L158.959 70.1224C158.959 70.1224 143.347 111.854 138.663 111.713C133.98 111.571 118.368 108.601 118.368 108.601C118.368 108.601 116.948 138.025 112.69 146.23C112.69 146.23 91.5432 153.869 80.6147 147.645C80.6147 147.645 89.6981 136.045 87.2854 119.069C84.7307 101.386 89.5562 76.4883 106.162 84.9762Z" fill="#CEE5ED"/>
<path d="M115.388 55.8344C115.388 55.8344 116.097 59.7953 117.375 61.6344C118.51 63.4734 121.065 65.3124 121.065 65.3124L119.078 67.8588C119.078 67.8588 120.639 76.9125 110.988 78.6101L109.994 87.5223L99.2078 83.8442L98.782 77.7613C98.782 77.7613 100.485 75.9222 100.627 73.9417C100.627 73.9417 98.4981 71.8198 99.2078 69.4149C99.9174 67.01 102.046 65.0295 103.182 66.0198C104.175 66.8685 104.317 68.7076 104.317 68.7076H105.736C105.736 68.7076 105.453 64.6051 106.304 62.9076C107.44 60.5027 110.278 56.9661 115.388 55.8344Z" fill="#EA9249"/>
<path d="M110.136 87.381L111.13 78.4688C120.639 76.7712 119.22 67.7175 119.22 67.7175L121.207 65.1711C121.207 65.1711 118.652 63.3321 117.517 61.4931C116.381 59.6541 115.53 55.6931 115.53 55.6931C115.104 55.8345 114.678 55.976 114.252 56.1174C114.962 57.9565 115.955 61.0687 116.097 64.0394C116.523 68.7077 115.672 73.8005 109.285 77.7614C107.156 79.0346 106.304 82.7127 106.021 86.1078L110.136 87.381Z" fill="#F2BF75"/>
<path d="M106.446 176.503C99.3495 174.947 92.5369 170.703 87.2856 166.459C85.5825 160.093 83.4535 151.323 82.7439 148.776C83.5955 149.059 84.447 149.342 85.2986 149.484C87.9952 153.869 93.8143 162.498 99.2075 167.025C101.478 169.006 104.033 171.976 106.304 175.089L106.446 176.503Z" fill="#0F2A3F"/>
<path d="M47.8296 169.43C47.8296 169.43 52.7971 125.718 34.7722 132.65C16.0378 139.581 39.4558 168.44 47.8296 169.43Z" fill="#34648C"/>
<path d="M42.8618 195.742C42.8618 195.742 37.3267 152.03 21.4307 164.196C6.95409 175.089 32.2172 192.489 42.8618 195.742Z" fill="#67B8EF"/>
<path d="M31.0821 179.333C38.3204 189.377 45.4168 199.703 47.6877 212.152C47.8296 212.86 48.8231 212.577 48.6812 211.869C46.4103 199.279 39.3139 188.952 31.9337 178.767C31.5079 178.342 30.6563 178.767 31.0821 179.333Z" fill="#1E394C"/>
<path d="M56.7712 160.094C56.7712 160.094 50.2425 127.981 66.848 130.952C83.3117 133.781 60.8871 158.537 56.7712 160.094Z" fill="#67B8EF"/>
<path d="M58.3321 191.074C57.4805 191.64 56.629 163.913 68.409 164.904C80.0471 165.894 74.6538 180.182 58.3321 191.074Z" fill="#34648C"/>
<path d="M53.0806 188.811C51.8033 172.542 58.6158 154.152 64.8607 139.44C65.1445 138.874 64.151 138.308 64.0091 138.874C57.6223 154.011 50.6679 172.26 52.0871 188.811C52.0871 189.518 53.2226 189.518 53.0806 188.811Z" fill="#1E394C"/>
<path d="M54.642 209.465C53.7904 190.367 52.0873 170.986 41.4427 154.576C41.0169 154.011 40.1654 154.576 40.5911 155.142C51.2357 171.411 52.9389 190.508 53.6485 209.465C53.6485 210.172 54.642 210.172 54.642 209.465Z" fill="#1E394C"/>
<path d="M57.0545 208.616C57.4803 198.572 58.19 188.528 63.7251 179.899C64.1509 179.333 63.1574 178.767 62.8736 179.333C57.1965 188.103 56.4868 198.43 56.061 208.616C56.061 209.323 57.0545 209.323 57.0545 208.616Z" fill="#1E394C"/>
<path d="M38.6043 206.635L41.3009 231.25C41.5848 234.362 44.2814 236.626 47.4038 236.626H63.1578C66.2802 236.626 68.8349 234.362 69.2607 231.25L71.9574 206.635C72.0993 205.362 71.1058 204.089 69.6865 204.089H40.8752C39.5978 204.089 38.4624 205.221 38.6043 206.635Z" fill="#CEE5ED"/>
<path d="M69.6863 204.089H59.7513C61.1706 204.089 62.1641 205.22 62.0222 206.635L59.3256 231.25C59.0417 234.362 56.3451 236.625 53.2227 236.625H63.1576C66.28 236.625 68.8347 234.362 69.2605 231.25L71.9571 206.635C72.0991 205.22 70.9636 204.089 69.6863 204.089Z" fill="#AAC6CE"/>
<path opacity="0.26" d="M41.5845 166.035C43.9973 168.015 46.1262 169.147 47.6874 169.43C47.6874 169.43 52.6549 126.142 34.772 132.508C39.5975 138.449 49.8163 153.728 41.5845 166.035Z" fill="#0F2A3F"/>
<path opacity="0.26" d="M69.2604 165.045C69.6862 170.562 69.5442 185.133 57.9062 184.142C57.7642 188.245 58.0481 191.216 58.3319 190.933C74.0859 180.606 79.6211 166.742 69.2604 165.045Z" fill="#0F2A3F"/>
<path opacity="0.42" d="M67.5577 131.093C67.9835 136.752 67.8415 152.596 55.6357 151.889C56.0615 156.557 56.7712 160.094 56.7712 160.094C60.8871 158.537 82.602 134.63 67.5577 131.093Z" fill="#34648C"/>
<path opacity="0.42" d="M42.8623 195.742C42.8623 195.742 37.3272 152.03 21.4312 164.196C20.8635 164.62 20.4377 165.045 20.012 165.328C24.9794 167.025 41.4431 174.24 36.0498 192.772C38.6045 194.186 41.0173 195.177 42.8623 195.742Z" fill="#34648C"/>
<defs>
<linearGradient id="paint0_linear_31_2880" x1="119.968" y1="241.733" x2="119.968" y2="-4.415" gradientUnits="userSpaceOnUse">
<stop stop-color="white"/>
<stop offset="0.1258" stop-color="#F8FCFE"/>
<stop offset="0.3051" stop-color="#E6F3FC"/>
<stop offset="0.5164" stop-color="#C7E5F9"/>
<stop offset="0.7522" stop-color="#9CD1F5"/>
<stop offset="1" stop-color="#67B8EF"/>
</linearGradient>
</defs>
</svg>
