<svg width="136" height="113" viewBox="0 0 136 113" fill="none" xmlns="http://www.w3.org/2000/svg">
<path fill-rule="evenodd" clip-rule="evenodd" d="M17.1334 56.6355C17.1334 69.4674 27.0785 75.9573 42.0035 75.9573H60.9462C62.951 75.9573 64.5763 74.332 64.5763 72.3272V72.3272C64.5763 71.1444 64 70.0357 63.032 69.3561L56.1515 64.5257C54.5886 63.4285 52.4377 64.5465 52.4377 66.4561V66.4561C52.4377 67.7588 51.3817 68.8147 50.0791 68.8147H42.9521C32.1029 68.8147 29.6129 63.975 29.6129 56.5C29.6129 48.1876 33.422 44.2715 44.034 44.2715H45.3218C47.3282 44.2715 48.9547 42.645 48.9547 40.6386V40.6386C48.9547 38.6323 47.3282 37.0058 45.3218 37.0058H40.2842C26.0262 37.0058 17.1334 44.8256 17.1334 56.6355ZM77.4856 75.9573C80.8417 75.9573 83.5623 73.2366 83.5623 69.8806V66.4008C83.5623 63.2828 82.0412 60.3609 79.487 58.5725L67.6401 50.2777C65.692 48.9137 64.5318 46.6851 64.5318 44.3069V43.0652C64.5318 39.7255 61.8245 37.0181 58.4847 37.0181V37.0181C55.145 37.0181 52.4377 39.7255 52.4377 43.0652V46.6789C52.4377 49.8112 53.9563 52.7491 56.5117 54.5605L68.3962 62.9848C70.2859 64.3243 71.4089 66.4968 71.4089 68.8132V69.8806C71.4089 73.2366 74.1295 75.9573 77.4856 75.9573V75.9573ZM79.9703 48.4968C81.507 49.5183 83.5623 48.4165 83.5623 46.5713V46.5713C83.5623 45.2943 84.5975 44.2592 85.8745 44.2592H93.1962C103.719 44.2592 106.298 49.4929 106.298 57.1896C106.343 66.8936 102.089 68.8147 90.5876 68.8147H90.3647C88.3923 68.8147 86.7934 70.4137 86.7934 72.386V72.386C86.7934 74.3584 88.3921 75.9646 90.3644 75.9789C97.1963 76.0285 104.235 75.9422 110.211 72.5584C116.821 68.864 118.867 62.3618 118.867 56.0936C118.867 44.8379 112.508 37.0058 95.701 37.0058H75.185C73.0995 37.0058 71.4089 38.6964 71.4089 40.7818V40.7818C71.4089 42.0462 72.0417 43.2266 73.0946 43.9265L79.9703 48.4968ZM0 15C0 6.71573 6.71573 0 15 0H121C129.284 0 136 6.71573 136 15V98C136 106.284 129.284 113 121 113H15C6.71573 113 0 106.284 0 98V15Z" fill="#0E5DE4"/>
</svg>
